<svg width="28" height="23" viewBox="0 0 28 23" fill="none" xmlns="http://www.w3.org/2000/svg">
<path opacity="0.5" d="M26.3204 0.846852H15.4892C14.7216 0.846852 14.0979 1.46802 14.0953 2.23689V12.0378L12.6207 12.0883L13.4931 8.9471C13.7658 7.90424 13.1901 6.82732 12.1713 6.4751C11.1537 6.12157 10.0351 6.61271 9.60457 7.60001L8.80286 9.48494C8.16276 10.981 7.08962 12.2524 5.72233 13.1349V12.3938C5.72233 11.837 5.27036 11.3838 4.71232 11.3838H1.16708C0.981489 11.3838 0.831238 11.5353 0.831238 11.7209V22.057C0.831238 22.1453 0.86659 22.2312 0.929715 22.2943C0.99284 22.3575 1.07869 22.3928 1.16707 22.3928H4.71231C5.27035 22.3928 5.72232 21.9408 5.72232 21.3828V20.6291C6.92678 21.2919 8.27764 21.6391 9.6512 21.6391H15.3312C16.2907 21.6429 17.0924 20.9106 17.1757 19.9562L17.3437 18.1116L24.502 18.1104C24.5904 18.1116 24.675 18.0775 24.7381 18.0169L27.6103 15.2028L27.6091 15.2015C27.6734 15.1384 27.7101 15.0526 27.7101 14.9629V2.22282C27.7025 1.46025 27.0826 0.84668 26.32 0.84668L26.3204 0.846852ZM5.04964 21.383C5.04964 21.4726 5.01429 21.5585 4.95117 21.6216C4.88804 21.6847 4.80219 21.7201 4.71255 21.7201H1.50448V12.044H4.71255C4.80219 12.044 4.88804 12.0793 4.95117 12.1424C5.01429 12.2056 5.04964 12.2914 5.04964 12.381V21.383ZM16.4969 19.8743V19.8755C16.4452 20.4828 15.9351 20.9499 15.3253 20.9461H9.65144C8.26518 20.9449 6.90546 20.5598 5.72256 19.8351V13.9088C7.3752 12.9531 8.67432 11.4886 9.42681 9.73496L10.231 7.85255C10.5202 7.18342 11.2764 6.8501 11.9645 7.08998C12.6538 7.32986 13.0401 8.06086 12.8508 8.76535L11.8508 12.3471C11.8218 12.4506 11.8445 12.5617 11.9114 12.6463C11.9771 12.7309 12.0794 12.7789 12.1867 12.7751L15.8366 12.6577V12.6564C16.1737 12.6488 16.4982 12.7814 16.7317 13.0238C16.9641 13.27 17.0789 13.6033 17.0486 13.9391L16.4969 19.8743ZM17.2203 12.563C16.8555 12.1767 16.3429 11.9658 15.8126 11.9835L14.7685 12.0176L14.7698 2.22289C14.7761 1.83152 15.098 1.51714 15.4894 1.51966H26.3207C26.7171 1.51966 27.0378 1.84034 27.0378 2.23679V14.4682H25.4685C24.7009 14.4694 24.0784 15.0906 24.0747 15.8582V17.43L17.406 17.4313L17.7191 14.0037C17.7658 13.4747 17.584 12.9506 17.2203 12.563ZM26.7045 15.1424L24.7488 17.0576V15.8582C24.7501 15.4618 25.072 15.1411 25.4685 15.1411L26.7045 15.1424ZM17.4692 6.84247C17.473 4.94742 19.0082 3.41229 20.9033 3.40841C21.0901 3.40841 21.2404 3.55865 21.2404 3.74552C21.2404 3.93111 21.0901 4.08136 20.9033 4.08136C19.7872 4.08262 18.7822 4.75679 18.3555 5.78827C17.9288 6.81975 18.1661 8.00652 18.9565 8.7956C19.7456 9.58467 20.9336 9.82077 21.9638 9.39278C22.9953 8.96479 23.6682 7.95856 23.6682 6.8425C23.6682 6.65691 23.8184 6.5054 24.004 6.5054C24.1909 6.5054 24.3411 6.6569 24.3411 6.8425C24.2831 8.69841 22.7617 10.1718 20.9058 10.1718C19.0486 10.1718 17.5274 8.69844 17.4692 6.84247ZM21.0384 6.98387L23.5773 4.08892C23.6985 3.94878 23.9106 3.93363 24.052 4.05483C24.1253 4.11417 24.1694 4.20128 24.1758 4.29597C24.1808 4.3894 24.1467 4.48156 24.0823 4.54974L21.3187 7.70477H21.3174C21.2581 7.77295 21.1735 7.81461 21.0826 7.8184C20.9967 7.82092 20.9147 7.7881 20.8528 7.7275L19.8226 6.77178C19.7506 6.71244 19.7052 6.62659 19.6989 6.53316C19.6925 6.441 19.7254 6.34884 19.7885 6.28066C19.8529 6.21248 19.9413 6.17335 20.0347 6.17335C20.1281 6.17335 20.2178 6.21248 20.2809 6.28066L21.0384 6.98387ZM24.2905 11.957H17.5196C17.334 11.957 17.1838 11.8055 17.1838 11.6199C17.1838 11.4343 17.334 11.2828 17.5196 11.2828H24.2905C24.476 11.2828 24.6276 11.4343 24.6276 11.6199C24.6276 11.8055 24.4761 11.957 24.2905 11.957ZM23.4281 13.1349C23.4281 13.2246 23.3928 13.3104 23.3297 13.3736C23.2665 13.4367 23.1807 13.472 23.0923 13.472H18.7151C18.5296 13.472 18.378 13.3205 18.378 13.1349C18.378 12.9493 18.5295 12.7978 18.7151 12.7978H23.0923C23.1832 12.7978 23.2716 12.8357 23.3347 12.9014C23.3978 12.9683 23.4319 13.0566 23.4281 13.1488L23.4281 13.1349ZM23.1226 14.65C23.1226 14.7396 23.0873 14.8255 23.0241 14.8886C22.961 14.9517 22.8752 14.9871 22.7855 14.9871H19.0218C18.835 14.9871 18.6847 14.8356 18.6847 14.65C18.6847 14.4644 18.8349 14.3129 19.0218 14.3129H22.7855C22.8752 14.3129 22.961 14.3482 23.0241 14.4113C23.0873 14.4745 23.1226 14.5603 23.1226 14.65ZM22.5002 16.165H22.4989C22.4989 16.2546 22.4636 16.3405 22.4005 16.4036C22.3373 16.4667 22.2515 16.5021 22.1631 16.5021H19.6583C19.4714 16.5021 19.3212 16.3506 19.3212 16.165C19.3212 15.9794 19.4714 15.8279 19.6583 15.8279H22.177H22.1757C22.2654 15.8317 22.35 15.8708 22.4106 15.9365C22.4712 16.0021 22.5027 16.0892 22.4989 16.1789L22.5002 16.165Z" fill="white"/>
</svg>
