<svg width="16" height="15" viewBox="0 0 16 15" fill="none" xmlns="http://www.w3.org/2000/svg">
<path d="M7.99951 0.615234C6.10156 0.615234 4.28134 1.36919 2.93928 2.71125C1.59722 4.05331 0.843262 5.87353 0.843262 7.77148C0.843262 9.66944 1.59722 11.4897 2.93928 12.8317C4.28134 14.1738 6.10156 14.9277 7.99951 14.9277C9.89747 14.9277 11.7177 14.1738 13.0597 12.8317C14.4018 11.4897 15.1558 9.66944 15.1558 7.77148C15.1558 5.87353 14.4018 4.05331 13.0597 2.71125C11.7177 1.36919 9.89747 0.615234 7.99951 0.615234ZM11.0767 6.06114L7.80629 10.3549C7.73995 10.4415 7.65467 10.5118 7.55699 10.5604C7.45931 10.609 7.35181 10.6347 7.2427 10.6353C7.1336 10.636 7.02578 10.6118 6.92749 10.5644C6.8292 10.517 6.74304 10.4478 6.67561 10.362L4.92948 8.13645C4.87168 8.06221 4.82908 7.97731 4.80409 7.8866C4.77911 7.7959 4.77223 7.70115 4.78386 7.60779C4.79549 7.51442 4.8254 7.42426 4.87187 7.34246C4.91834 7.26065 4.98047 7.1888 5.05472 7.131C5.20465 7.01428 5.39482 6.9619 5.58338 6.98538C5.67674 6.99701 5.7669 7.02692 5.84871 7.07339C5.93052 7.11986 6.00237 7.18199 6.06017 7.25623L7.22664 8.74473L9.9317 5.16661C9.98902 5.09143 10.0606 5.02827 10.1423 4.98075C10.2241 4.93323 10.3144 4.90227 10.4081 4.88965C10.5018 4.87702 10.597 4.88297 10.6884 4.90717C10.7798 4.93136 10.8655 4.97331 10.9407 5.03064C11.0159 5.08797 11.0791 5.15954 11.1266 5.24127C11.1741 5.32301 11.2051 5.4133 11.2177 5.507C11.2303 5.60069 11.2244 5.69596 11.2002 5.78736C11.176 5.87875 11.134 5.96449 11.0767 6.03967V6.06114Z" fill="#2CB14F"/>
</svg>
