<svg width="26" height="27" viewBox="0 0 26 27" fill="none" xmlns="http://www.w3.org/2000/svg">
<path opacity="0.5" d="M3.86986 17.0273C5.50638 15.395 7.09484 13.8817 9.20957 13.8817H13.3752C13.9093 13.8817 14.3941 14.1001 14.7452 14.4511L14.7784 14.4875C15.1101 14.8364 15.3146 15.3074 15.3146 15.8211C15.3146 16.3531 15.0962 16.8379 14.7441 17.1901C14.3941 17.5422 13.9093 17.7605 13.3752 17.7605H10.1631C9.86018 17.7605 9.61508 17.5154 9.61508 17.2125C9.61508 16.9096 9.86018 16.6645 10.1631 16.6645H13.3752C13.6064 16.6645 13.8172 16.5693 13.9703 16.4162C14.1244 16.2642 14.2186 16.0534 14.2186 15.8211C14.2186 15.5996 14.133 15.3984 13.9949 15.2485L13.9703 15.2261C13.8172 15.073 13.6064 14.9777 13.3752 14.9777H9.20956C7.46602 14.9777 5.99747 16.4462 4.4606 17.981L4.43491 18.0067L6.95977 22.38C8.5845 21.45 10.191 21.4906 11.7805 21.5302C13.63 21.5762 15.4559 21.6223 17.1224 19.8573C18.9944 17.8751 20.5323 17.0296 22.5649 15.9112C23.0925 15.6211 23.6512 15.3129 24.1917 15.0025L24.2206 14.9843C24.4208 14.8687 24.5567 14.6803 24.6134 14.4705C24.667 14.2682 24.6488 14.0467 24.5449 13.8519L24.5321 13.8294C24.4165 13.6293 24.2281 13.4933 24.0184 13.4377C23.8075 13.3809 23.5763 13.4045 23.3762 13.5201L17.4435 16.9451C17.1824 17.0949 16.8484 17.005 16.6986 16.7439C16.5487 16.4827 16.6386 16.1488 16.8998 15.9989L22.8324 12.5739C23.2937 12.3074 23.8225 12.2528 24.3009 12.3813C24.7804 12.5097 25.2117 12.8212 25.4782 13.2825L25.4975 13.3199C25.7469 13.7737 25.795 14.2875 25.6709 14.7531C25.5425 15.2315 25.231 15.6639 24.7697 15.9304L24.7386 15.9476C24.1061 16.3115 23.5827 16.6004 23.0925 16.8702C21.1445 17.9416 19.6719 18.7529 17.9197 20.6067C15.9182 22.7259 13.8494 22.6746 11.7558 22.6221C10.3269 22.5857 8.88317 22.5504 7.50769 23.3274L7.81594 23.8615C7.96685 24.1259 7.99789 24.4245 7.92511 24.6921C7.8534 24.9618 7.6768 25.2058 7.4135 25.3567L5.61431 26.381C5.39382 26.4656 5.15727 26.4741 4.94002 26.4164C4.66816 26.3436 4.4252 26.167 4.27535 25.9069C3.88789 25.2369 0.100146 18.7218 0.100146 18.6459C0.0155925 18.4254 0.00703 18.1889 0.0648247 17.9727C0.137605 17.7019 0.314208 17.4589 0.573231 17.308L2.2183 16.3586C2.47945 16.2077 2.77915 16.1778 3.04885 16.2495C3.31963 16.3212 3.56259 16.4978 3.71351 16.759L3.86871 17.0287L3.86986 17.0273ZM7.99602 0.964032C8.92184 0.964032 9.7599 1.33971 10.3667 1.9455C10.9725 2.55128 11.3482 3.39041 11.3482 4.31623C11.3482 5.24204 10.9725 6.0801 10.3667 6.68695C9.76096 7.29274 8.92184 7.66842 7.99602 7.66842C7.07021 7.66842 6.23215 7.29274 5.6253 6.68695C5.01951 6.08117 4.64383 5.24204 4.64383 4.31623C4.64383 3.39041 5.01951 2.55235 5.6253 1.9455C6.23108 1.33971 7.07021 0.964032 7.99602 0.964032ZM9.59185 2.72042C9.18406 2.31263 8.61893 2.06003 7.99602 2.06003C7.37311 2.06003 6.80906 2.31263 6.40019 2.72042C5.9924 3.12822 5.7398 3.69334 5.7398 4.31625C5.7398 4.93916 5.99239 5.50322 6.40019 5.91208C6.80799 6.31988 7.37311 6.57248 7.99602 6.57248C8.61893 6.57248 9.18299 6.31988 9.59185 5.91208C9.99965 5.50429 10.2522 4.93916 10.2522 4.31625C10.2522 3.69334 9.99965 3.12929 9.59185 2.72042ZM10.187 7.91244C10.9255 8.30846 11.5452 8.90249 11.9754 9.62174C12.3918 10.3185 12.6326 11.1319 12.6326 11.9978C12.6326 12.3007 12.3875 12.5458 12.0846 12.5458H3.90735C3.60444 12.5458 3.35935 12.3007 3.35935 11.9978C3.35935 11.1319 3.5991 10.3185 4.01651 9.62174C4.44677 8.90249 5.06647 8.30846 5.80498 7.91244C6.0244 7.79471 6.28769 7.8418 6.45467 8.01091C6.65803 8.20143 6.89671 8.35448 7.15786 8.4583C7.41259 8.55998 7.69621 8.6167 7.99591 8.6167C8.29561 8.6167 8.57923 8.55998 8.83397 8.4583C9.10048 8.35234 9.34344 8.19393 9.55001 7.99699C9.72554 7.83002 9.98348 7.80327 10.1858 7.91137L10.187 7.91244ZM11.0389 10.1826C10.7724 9.73627 10.4096 9.35418 9.97825 9.06305C9.75134 9.22895 9.50302 9.36809 9.2376 9.47405C8.85013 9.62817 8.43165 9.7138 7.99712 9.7138C7.56258 9.7138 7.14301 9.62817 6.75664 9.47405C6.4912 9.36809 6.24182 9.22895 6.01599 9.06305C5.58573 9.35418 5.2229 9.73734 4.95531 10.1826C4.72734 10.5636 4.57001 10.9917 4.49828 11.4509H11.496C11.4253 10.9917 11.2669 10.5636 11.0389 10.1826ZM17.7368 0.963867C18.6627 0.963867 19.5007 1.33955 20.1076 1.94533C20.7134 2.55112 21.089 3.39024 21.089 4.31606C21.089 5.24188 20.7134 6.07993 20.1076 6.68679C19.5018 7.29257 18.6627 7.66826 17.7368 7.66826C16.811 7.66826 15.973 7.29257 15.3661 6.68679C14.7603 6.081 14.3847 5.24188 14.3847 4.31606C14.3847 3.39024 14.7603 2.55219 15.3661 1.94533C15.9719 1.33955 16.811 0.963867 17.7368 0.963867ZM19.3327 2.72026C18.9249 2.31247 18.3598 2.05987 17.7368 2.05987C17.1139 2.05987 16.5499 2.31246 16.141 2.72026C15.7332 3.12805 15.4806 3.69318 15.4806 4.31609C15.4806 4.939 15.7332 5.50306 16.141 5.91192C16.5488 6.31971 17.1139 6.57231 17.7368 6.57231C18.3598 6.57231 18.9238 6.31972 19.3327 5.91192C19.7405 5.50412 19.9931 4.939 19.9931 4.31609C19.9931 3.69318 19.7405 3.12912 19.3327 2.72026ZM19.9278 7.91228C20.6663 8.30829 21.286 8.90232 21.7163 9.62157C22.1326 10.3184 22.3734 11.1318 22.3734 11.9977C22.3734 12.3006 22.1283 12.5457 21.8254 12.5457H13.6482C13.3453 12.5457 13.1002 12.3006 13.1002 11.9977C13.1002 11.1318 13.3399 10.3184 13.7573 9.62157C14.1876 8.90232 14.8073 8.30829 15.5458 7.91228C15.7652 7.79454 16.0285 7.84164 16.1955 8.01075C16.3988 8.20126 16.6375 8.35432 16.8987 8.45814C17.1534 8.55981 17.437 8.61654 17.7367 8.61654C18.0364 8.61654 18.3201 8.55981 18.5748 8.45814C18.8413 8.35217 19.0843 8.19377 19.2908 7.99683C19.4664 7.82986 19.7243 7.8031 19.9266 7.91121L19.9278 7.91228ZM20.7798 10.1824C20.5132 9.7361 20.1504 9.35401 19.7191 9.06289C19.4922 9.22878 19.2438 9.36793 18.9784 9.47389C18.591 9.62801 18.1725 9.71363 17.7379 9.71363C17.3034 9.71363 16.8838 9.62801 16.4975 9.47389C16.232 9.36792 15.9826 9.22878 15.7568 9.06289C15.3266 9.35401 14.9637 9.73717 14.6961 10.1824C14.4682 10.5634 14.3108 10.9916 14.2391 11.4507H21.2368C21.1661 10.9916 21.0077 10.5634 20.7798 10.1824ZM8.82761 16.6642C9.13052 16.6642 9.37561 16.9093 9.37561 17.2122C9.37561 17.5151 9.13051 17.7602 8.82761 17.7602H8.74199C8.43908 17.7602 8.19399 17.5151 8.19399 17.2122C8.19399 16.9093 8.43909 16.6642 8.74199 16.6642H8.82761ZM2.76975 17.3042L1.12469 18.2535L5.2229 25.3584L6.87224 24.4101L2.76975 17.3042Z" fill="white"/>
</svg>
