<svg width="16" height="17" viewBox="0 0 16 17" fill="none" xmlns="http://www.w3.org/2000/svg">
<path d="M6.66449 7.93766V12.9377M9.99782 7.93766V12.9377M1.66449 4.60433H14.9978M14.1645 4.60433L13.442 14.7227C13.4121 15.1431 13.2239 15.5367 12.9154 15.824C12.6069 16.1113 12.201 16.271 11.7795 16.271H4.88282C4.46127 16.271 4.05538 16.1113 3.74689 15.824C3.43841 15.5367 3.25025 15.1431 3.22032 14.7227L2.49782 4.60433H14.1645ZM10.8312 4.60433V2.10433C10.8312 1.88332 10.7434 1.67135 10.5871 1.51507C10.4308 1.35879 10.2188 1.271 9.99782 1.271H6.66449C6.44348 1.271 6.23151 1.35879 6.07523 1.51507C5.91895 1.67135 5.83116 1.88332 5.83116 2.10433V4.60433H10.8312Z" stroke="#F32D2D" stroke-width="1.4" stroke-linecap="round" stroke-linejoin="round"/>
</svg>
