<svg width="23" height="23" viewBox="0 0 23 23" fill="none" xmlns="http://www.w3.org/2000/svg">
<path d="M17.7478 16.7412H4.91447C4.67135 16.7412 4.4382 16.8378 4.26629 17.0097C4.09438 17.1816 3.9978 17.4148 3.9978 17.6579C3.9978 17.901 4.09438 18.1342 4.26629 18.3061C4.4382 18.478 4.67135 18.5745 4.91447 18.5745H17.7478C17.9909 18.5745 18.2241 18.478 18.396 18.3061C18.5679 18.1342 18.6645 17.901 18.6645 17.6579C18.6645 17.4148 18.5679 17.1816 18.396 17.0097C18.2241 16.8378 17.9909 16.7412 17.7478 16.7412Z" fill="#FD9B63"/>
<path d="M3.9978 15.8244V17.6577C3.9978 17.9008 4.09438 18.134 4.26629 18.3059C4.4382 18.4778 4.67135 18.5744 4.91447 18.5744C5.15758 18.5744 5.39074 18.4778 5.56265 18.3059C5.73456 18.134 5.83114 17.9008 5.83114 17.6577V15.8244C5.83114 15.5813 5.73456 15.3481 5.56265 15.1762C5.39074 15.0043 5.15758 14.9077 4.91447 14.9077C4.67135 14.9077 4.4382 15.0043 4.26629 15.1762C4.09438 15.3481 3.9978 15.5813 3.9978 15.8244Z" fill="#FD9B63"/>
<path d="M16.8311 15.8244V17.6577C16.8311 17.9008 16.9277 18.134 17.0996 18.3059C17.2715 18.4778 17.5047 18.5744 17.7478 18.5744C17.9909 18.5744 18.2241 18.4778 18.396 18.3059C18.5679 18.134 18.6644 17.9008 18.6644 17.6577V15.8244C18.6644 15.5813 18.5679 15.3481 18.396 15.1762C18.2241 15.0043 17.9909 14.9077 17.7478 14.9077C17.5047 14.9077 17.2715 15.0043 17.0996 15.1762C16.9277 15.3481 16.8311 15.5813 16.8311 15.8244Z" fill="#FD9B63"/>
<path d="M11.3311 13.9911C11.1411 13.9925 10.9553 13.9348 10.7995 13.8261L7.13278 11.2411C7.03468 11.1712 6.95128 11.0828 6.88736 10.9807C6.82344 10.8787 6.78024 10.765 6.76024 10.6463C6.74023 10.5275 6.74382 10.406 6.77078 10.2887C6.79774 10.1713 6.84755 10.0604 6.91737 9.9623C6.98719 9.86419 7.07565 9.7808 7.1777 9.71688C7.27974 9.65295 7.39339 9.60976 7.51213 9.58976C7.63087 9.56975 7.75239 9.57333 7.86975 9.60029C7.98711 9.62725 8.09801 9.67707 8.19612 9.74688L11.3311 11.9377L14.4478 9.59105C14.6423 9.44518 14.8868 9.38255 15.1274 9.41693C15.3681 9.45131 15.5852 9.57989 15.7311 9.77438C15.877 9.96888 15.9396 10.2133 15.9052 10.454C15.8709 10.6947 15.7423 10.9118 15.5478 11.0577L11.8811 13.8077C11.7224 13.9267 11.5295 13.9911 11.3311 13.9911Z" fill="#FD9B63"/>
<path d="M11.3311 12.1579C11.088 12.1579 10.8548 12.0613 10.6829 11.8894C10.511 11.7175 10.4144 11.4843 10.4144 11.2412V3.90788C10.4144 3.66476 10.511 3.4316 10.6829 3.2597C10.8548 3.08779 11.088 2.99121 11.3311 2.99121C11.5742 2.99121 11.8074 3.08779 11.9793 3.2597C12.1512 3.4316 12.2478 3.66476 12.2478 3.90788V11.2412C12.2478 11.4843 12.1512 11.7175 11.9793 11.8894C11.8074 12.0613 11.5742 12.1579 11.3311 12.1579Z" fill="#FD9B63"/>
</svg>
