<svg width="21" height="21" viewBox="0 0 21 21" fill="none" xmlns="http://www.w3.org/2000/svg">
<path d="M9.49782 4.93764H5.33116C4.88913 4.93764 4.46521 5.11323 4.15265 5.42579C3.84008 5.73835 3.66449 6.16227 3.66449 6.6043V15.771C3.66449 16.213 3.84008 16.6369 4.15265 16.9495C4.46521 17.262 4.88913 17.4376 5.33116 17.4376H14.4978C14.9399 17.4376 15.3638 17.262 15.6763 16.9495C15.9889 16.6369 16.1645 16.213 16.1645 15.771V11.6043M14.9862 3.7593C15.1399 3.60012 15.3238 3.47315 15.5271 3.3858C15.7305 3.29845 15.9492 3.25247 16.1705 3.25055C16.3918 3.24863 16.6113 3.2908 16.8161 3.3746C17.0209 3.4584 17.207 3.58216 17.3635 3.73864C17.52 3.89513 17.6437 4.08122 17.7275 4.28605C17.8113 4.49087 17.8535 4.71034 17.8516 4.93164C17.8497 5.15294 17.8037 5.37164 17.7163 5.57498C17.629 5.77832 17.502 5.96222 17.3428 6.11597L10.1878 13.271H7.83116V10.9143L14.9862 3.7593Z" stroke="#2E65F3" stroke-width="1.4" stroke-linecap="round" stroke-linejoin="round"/>
</svg>
