<svg width="27" height="26" viewBox="0 0 27 26" fill="none" xmlns="http://www.w3.org/2000/svg">
<g opacity="0.5">
<path d="M14.9899 22.2219C15.3338 22.7534 15.7403 23.2537 16.2718 23.5976C17.0222 24.1291 17.8977 24.4418 18.8983 24.4418C21.0244 24.4418 22.7753 23.0035 23.3069 21.065C23.4319 20.6898 23.4632 20.3146 23.4632 19.8769C23.4632 19.7205 23.4632 19.5954 23.4319 19.4704C23.2756 17.5318 21.8686 15.8747 19.9926 15.437C19.6487 15.3744 19.2735 15.2806 18.8983 15.2806C18.7419 15.2806 18.5856 15.2806 18.398 15.3119C18.3355 15.3119 18.2416 15.3119 18.1791 15.3432C16.0217 15.6871 14.302 17.5944 14.302 19.8769C14.302 20.6898 14.5834 21.534 14.9899 22.2219ZM13.3015 22.3157C12.9576 21.5653 12.77 20.7211 12.77 19.8456C12.77 17.0628 14.646 14.7491 17.1473 13.9674C17.3036 13.9362 17.4912 13.9049 17.6476 13.8424C17.0222 12.8418 16.3031 12.0602 15.5214 11.5286C15.115 11.216 14.7085 10.9971 14.302 10.8408C13.8018 10.6532 13.364 10.5281 12.895 10.5281C12.5198 10.5281 12.0821 10.5906 11.6756 10.747C11.2692 10.9033 10.8314 11.0909 10.425 11.4036C8.48643 12.6855 6.70423 15.4682 6.70423 19.2828C6.70423 19.6267 6.76676 19.9394 6.89183 20.1895C7.0169 20.5022 7.2045 20.7211 7.42336 20.9399C7.70476 21.1588 8.0487 21.4089 8.45517 21.5653C9.70583 22.1281 11.5193 22.3469 13.3015 22.3157ZM26.0896 17.4693C26.0896 18.4698 25.6831 19.314 25.0265 19.9706C25.0265 19.9706 25.0265 20.0019 24.9953 20.0019C24.8702 23.2849 22.2125 25.9113 18.8983 25.9113C17.0535 25.9113 15.4276 25.0984 14.3333 23.8477C11.3317 24.1291 7.92363 23.5663 6.39156 22.0655C6.23523 21.9092 6.11016 21.7529 5.9851 21.5965C4.01529 21.4715 2.13929 20.9399 1.13875 19.9706C0.450884 19.2828 0.0756836 18.4386 0.0756836 17.4693C0.0756836 15.4057 0.763552 13.1232 1.92042 11.3723C2.48322 10.4968 3.13982 9.80897 3.85896 9.27743C3.98402 9.15236 4.01529 8.99603 4.04656 8.87096C4.07782 8.6521 4.01529 8.3707 3.85896 8.1831C3.17109 7.43269 2.70209 6.40089 2.70209 5.24402C2.70209 2.83649 4.64063 0.897949 7.04816 0.897949C8.1425 0.897949 9.14303 1.30442 9.89343 1.99228C10.7376 1.30442 11.7694 0.929216 12.895 0.929216C14.1144 0.929216 15.2088 1.39822 16.053 2.11735C16.8034 1.36695 17.8977 0.897949 19.0546 0.897949C21.4621 0.897949 23.4007 2.83649 23.4007 5.24402C23.4007 6.33836 22.9942 7.37016 22.2438 8.1831C22.0875 8.40196 22.0562 8.6521 22.0562 8.87096C22.0875 9.0273 22.1187 9.18363 22.2438 9.27743C22.9629 9.80897 23.6195 10.4968 24.1823 11.3723C25.4017 13.1232 26.0896 15.437 26.0896 17.4693ZM24.6513 17.907C24.6826 17.7507 24.6826 17.6256 24.6826 17.5006C24.7139 12.5917 21.4309 9.5901 19.1171 9.5901C18.398 9.5901 17.5538 9.90277 16.7408 10.4343C17.4287 10.9658 18.0853 11.685 18.6169 12.5292C18.8983 12.9044 19.1171 13.2796 19.3047 13.7486C21.8061 13.9362 23.9009 15.6246 24.6513 17.907ZM21.4934 6.96369C21.8373 6.46343 22.0249 5.90063 22.0249 5.24402C22.0249 3.61815 20.6805 2.27369 19.0546 2.27369C18.2104 2.27369 17.4912 2.61762 16.9597 3.14915C17.4287 3.89955 17.7101 4.77502 17.7101 5.71303C17.7101 6.40089 17.5538 6.99496 17.3349 7.6203C17.8352 7.9955 18.4293 8.1831 19.0859 8.1831C19.9301 8.1831 20.6805 7.83916 21.212 7.27636C21.3058 7.18256 21.3996 7.08876 21.4934 6.96369ZM16.1155 5.61922C16.1155 3.83702 14.6772 2.36749 12.8638 2.36749C11.0503 2.36749 9.61203 3.80575 9.61203 5.61922C9.61203 7.43269 11.0503 8.87096 12.8638 8.87096C14.6772 8.87096 16.1155 7.43269 16.1155 5.61922ZM8.1425 5.74429C8.1425 4.71249 8.45517 3.80575 8.9867 3.02409C8.45517 2.55509 7.79856 2.30495 7.04816 2.30495C5.42229 2.30495 4.07782 3.64942 4.07782 5.27529C4.07782 5.93189 4.26542 6.49469 4.64063 6.99496C4.76569 7.12003 4.82823 7.21383 4.92203 7.33889C5.45356 7.9017 6.20396 8.24563 7.04816 8.24563C7.61096 8.24563 8.1425 8.0893 8.58023 7.77663C8.26757 7.15129 8.1425 6.46343 8.1425 5.74429ZM7.26703 12.5292C7.82983 11.6224 8.5177 10.9033 9.29937 10.3092C8.58023 9.80897 7.7673 9.55883 7.07943 9.55883C4.76569 9.55883 1.48269 12.5604 1.48269 17.438C1.48269 18.0634 1.67029 18.5324 2.13929 18.9701C2.76462 19.5329 3.98402 19.9081 5.32849 20.0645C5.26596 19.7831 5.26596 19.5329 5.26596 19.2203C5.20343 17.0003 5.95383 14.4677 7.26703 12.5292Z" fill="white"/>
<path d="M17.8352 22.0969L16.4907 20.815C16.2718 20.6274 16.2093 20.346 16.3344 20.0646C16.522 19.6268 17.1473 19.4705 17.46 19.8144C17.7414 20.0646 17.9915 20.3147 18.2729 20.5961C19.0546 19.7206 19.8362 18.8764 20.5866 18.001C20.9306 17.6258 21.5246 17.7508 21.7435 18.1886C21.8686 18.4387 21.806 18.7201 21.6184 18.939C20.9618 19.6894 20.3052 20.4398 19.6174 21.1589L18.8357 22.0344C18.7106 22.1907 18.523 22.2532 18.3042 22.2532C18.1478 22.2845 17.9602 22.222 17.8352 22.0969Z" fill="white"/>
</g>
</svg>
