<svg width="20" height="23" viewBox="0 0 20 23" fill="none" xmlns="http://www.w3.org/2000/svg">
<path opacity="0.5" fill-rule="evenodd" clip-rule="evenodd" d="M17.0289 6.36993L18.2377 7.49302L18.7947 6.89361C18.8413 6.84329 18.8632 6.77826 18.861 6.71399C18.8588 6.65021 18.8319 6.58693 18.7815 6.54009L17.9395 5.75756C17.8891 5.71098 17.8241 5.68905 17.7598 5.69129C17.6961 5.69354 17.6328 5.72044 17.5859 5.77077L17.0289 6.36993ZM15.5296 10.4079L14.1624 11.8795L13.7456 11.4924L17.4721 7.48107L17.8889 7.86822L15.5528 10.383C15.5445 10.3907 15.5368 10.3992 15.5296 10.4079ZM7.47737 2.29935H5.89886V4.26526H11.6994V2.29935H10.1209V2.29835C9.98116 2.29835 9.86681 2.18574 9.86506 2.04573C9.86108 1.75524 9.74025 1.49241 9.54767 1.30232C9.35559 1.11273 9.09126 0.995885 8.79902 0.995885C8.50679 0.995885 8.24246 1.11273 8.05038 1.30232C7.86203 1.48817 7.74245 1.74328 7.73348 2.0263C7.73373 2.03178 7.73398 2.03726 7.73398 2.04274C7.73398 2.1845 7.61913 2.2996 7.47712 2.2996L7.47737 2.29935ZM12.2129 2.93015V3.63719H15.2055C15.4202 3.63719 15.6153 3.72489 15.7566 3.86615C15.8978 4.0074 15.9855 4.20248 15.9855 4.41723V6.7399L16.6926 5.97879V4.41723C16.6926 4.0084 16.5251 3.63669 16.2556 3.36713C15.986 3.09757 15.6141 2.93015 15.2055 2.93015H12.2129ZM5.64226 1.78589H7.24543C7.30348 1.45628 7.46342 1.16231 7.69138 0.937339C7.97663 0.656068 8.36777 0.482422 8.79902 0.482422C9.23027 0.482422 9.62141 0.656068 9.90667 0.937339C10.1349 1.16231 10.2948 1.45653 10.3526 1.78589H11.9558C12.0975 1.78589 12.2126 1.90074 12.2126 2.04274V2.41669H15.2052C15.7556 2.41669 16.2561 2.64166 16.6186 3.00415C16.981 3.36663 17.206 3.86689 17.206 4.41748V5.42647L17.2103 5.42198C17.353 5.26852 17.5456 5.18705 17.7412 5.18007C17.9362 5.17285 18.1343 5.23987 18.288 5.38262L19.1303 6.16515C19.2838 6.3079 19.3653 6.50048 19.3722 6.69605C19.3795 6.89112 19.3124 7.08918 19.1697 7.2429L17.2063 9.35629V20.9039C17.2063 21.4542 16.9813 21.9547 16.6188 22.3172C16.2563 22.6797 15.7561 22.9046 15.2055 22.9046H2.39282C1.84248 22.9046 1.34197 22.6797 0.979484 22.3172C0.616996 21.9547 0.392029 21.4544 0.392029 20.9039V4.41748C0.392029 3.86714 0.616996 3.36663 0.979484 3.00415C1.34197 2.64166 1.84223 2.41669 2.39282 2.41669H5.3854V2.04274C5.3854 1.90099 5.50025 1.78589 5.64226 1.78589ZM13.8646 21.5728C13.8183 21.6398 13.7408 21.6839 13.6531 21.6839H2.39282C2.17806 21.6839 1.98299 21.5962 1.84173 21.4549C1.70048 21.3137 1.61278 21.1184 1.61278 20.9036V4.41748C1.61278 4.20272 1.70048 4.00765 1.84173 3.8664C1.98299 3.72514 2.17806 3.63744 2.39282 3.63744H5.3854V2.9304H2.39282C1.98399 2.9304 1.61228 3.09782 1.34272 3.36738C1.07316 3.63694 0.905741 4.0089 0.905741 4.41748V20.9036C0.905741 21.3124 1.07316 21.6841 1.34272 21.9537C1.61228 22.2233 1.98424 22.3907 2.39282 22.3907H15.2055C15.6143 22.3907 15.986 22.2233 16.2556 21.9537C16.5251 21.6841 16.6926 21.3122 16.6926 20.9036V9.90862L15.9855 10.6697V18.9183V18.9247L15.985 18.931L15.9845 18.9367V18.9374V18.9389L15.9838 18.9437V18.9442V18.9447L15.983 18.9502V18.9506V18.9511L15.982 18.9564V18.9569L15.9818 18.9579L15.981 18.9624V18.9634L15.9805 18.9658L15.9798 18.9688V18.9696L15.9795 18.9703L15.9785 18.9751V18.9758L15.978 18.9768L15.977 18.9805L15.9763 18.9833V18.984L15.975 18.987V18.988L15.9741 18.99L15.9731 18.993V18.994L15.9721 18.996L15.9711 18.999L15.9703 19.0015L15.9693 19.0047L15.9683 19.0075L15.9671 19.0104L15.9661 19.0132L15.9648 19.0162L15.9636 19.0189L15.9623 19.0217L15.9611 19.0244L15.9599 19.0271V19.0276L15.9586 19.0299L15.9571 19.0326L15.9561 19.0349V19.0354L15.9544 19.0381L15.9529 19.0408L15.9514 19.0436L15.9499 19.0461L15.9481 19.0486L15.9464 19.0511L15.9447 19.0535L15.9429 19.056L15.9412 19.0585L15.9394 19.061L15.9377 19.0635L15.9359 19.066L15.9342 19.0685L15.9324 19.071L15.9305 19.0735L15.9285 19.0757L15.9265 19.078L15.9245 19.0802L15.9225 19.0824H15.9222L15.9205 19.0847L15.9185 19.0869L15.9148 19.0912L13.8669 21.5723L13.8646 21.5728ZM15.1853 19.1689H13.9097V20.7143L15.1853 19.1689ZM3.46583 7.77579H8.78681C8.92857 7.77579 9.04367 7.66094 9.04367 7.51893C9.04367 7.37693 8.92882 7.26208 8.78681 7.26208H3.46583C3.32407 7.26208 3.20898 7.37693 3.20898 7.51893C3.20898 7.66094 3.32383 7.77579 3.46583 7.77579ZM14.4526 12.32V18.6552H15.4723V11.2223L14.4526 12.32ZM14.395 9.20482L15.905 7.57947C15.9133 7.57175 15.921 7.56328 15.9282 7.55456L16.6803 6.74513L17.0971 7.13228L13.3706 11.1436L12.9538 10.7564L14.3721 9.22973C14.3803 9.22201 14.3878 9.21379 14.395 9.20482ZM13.3965 19.8169H3.40255C3.2608 19.8169 3.1457 19.702 3.1457 19.56V8.85653C3.1457 8.71477 3.26055 8.59967 3.40255 8.59967H14.196C14.2152 8.59967 14.2341 8.60191 14.252 8.6059L15.4723 7.29247V4.41698C15.4723 4.34398 15.4422 4.27722 15.3938 4.22888C15.3455 4.18055 15.2787 4.15041 15.2057 4.15041H12.2131V4.52186C12.2131 4.66362 12.0983 4.77872 11.9563 4.77872H5.64226C5.5005 4.77872 5.3854 4.66387 5.3854 4.52186V4.15041H2.39282C2.31982 4.15041 2.25305 4.18055 2.20472 4.22888C2.15639 4.27722 2.12624 4.34398 2.12624 4.41698V20.9031C2.12624 20.9761 2.15639 21.0429 2.20472 21.0912C2.25305 21.1395 2.31982 21.1697 2.39282 21.1697H13.3963V19.8164L13.3965 19.8169ZM3.46583 6.60362H6.43027C6.57202 6.60362 6.68712 6.48877 6.68712 6.34676C6.68712 6.20476 6.57227 6.08991 6.43027 6.08991H3.46583C3.32407 6.08991 3.20898 6.20476 3.20898 6.34676C3.20898 6.48877 3.32383 6.60362 3.46583 6.60362ZM5.69707 10.4515H12.538L13.7807 9.11388H5.69707V10.4515ZM3.65941 10.4515H5.1836V9.11388H3.65941V10.4515ZM12.5138 12.2285C12.5121 12.2378 12.5101 12.2467 12.5076 12.2555L12.4471 12.5141L13.678 12.1289L12.7408 11.2582L12.5138 12.2285ZM5.69707 11.9268H12.0577L12.2826 10.9649H5.69707V11.9268ZM3.65941 11.9268H5.1836V10.9649H3.65941V11.9268ZM5.69707 13.4022H13.9391V12.5846L12.1793 13.1354C12.1349 13.1508 12.0858 13.1543 12.0368 13.1429C11.8987 13.1107 11.813 12.973 11.8452 12.8349L11.9374 12.4406H5.69682V13.4025L5.69707 13.4022ZM3.65941 13.4022H5.1836V12.4403H3.65941V13.4022ZM5.69707 14.8776H13.9391V13.9157H5.69707V14.8776ZM3.65941 14.8776H5.1836V13.9157H3.65941V14.8776ZM5.69707 16.3529H13.9391V15.391H5.69707V16.3529ZM3.65941 16.3529H5.1836V15.391H3.65941V16.3529ZM5.1836 18.3418H3.65941V19.3037H5.1836V18.3418ZM13.9391 18.3418H5.69707V19.3037H13.3965V18.9123C13.3965 18.7705 13.5114 18.6554 13.6534 18.6554H13.9394L13.9391 18.3418ZM5.69707 17.8283H13.9391V16.8664H5.69707V17.8283ZM3.65941 17.8283H5.1836V16.8664H3.65941V17.8283Z" fill="white"/>
</svg>
