<svg width="24" height="17" viewBox="0 0 24 17" fill="none" xmlns="http://www.w3.org/2000/svg">
<g opacity="0.5">
<path fill-rule="evenodd" clip-rule="evenodd" d="M7.24543 0.853027C4.59491 0.853027 2.44232 3.00562 2.44232 5.65613C2.44232 8.30665 4.59491 10.4592 7.24543 10.4592C9.89674 10.4592 12.0485 8.30665 12.0485 5.65613C12.0485 3.00562 9.89674 0.853027 7.24543 0.853027ZM7.24543 2.45406C9.01297 2.45406 10.4475 3.88859 10.4475 5.65613C10.4475 7.42368 9.01297 8.8582 7.24543 8.8582C5.47869 8.8582 4.04336 7.42368 4.04336 5.65613C4.04336 3.88859 5.47869 2.45406 7.24543 2.45406Z" fill="white"/>
<path fill-rule="evenodd" clip-rule="evenodd" d="M18.4526 0.853027C15.8021 0.853027 13.6495 3.00562 13.6495 5.65613C13.6495 8.30665 15.8021 10.4592 18.4526 10.4592C21.104 10.4592 23.2557 8.30665 23.2557 5.65613C23.2557 3.00562 21.104 0.853027 18.4526 0.853027ZM18.4526 2.45406C20.2202 2.45406 21.6547 3.88859 21.6547 5.65613C21.6547 7.42368 20.2202 8.8582 18.4526 8.8582C16.6859 8.8582 15.2506 7.42368 15.2506 5.65613C15.2506 3.88859 16.6859 2.45406 18.4526 2.45406Z" fill="white"/>
<path fill-rule="evenodd" clip-rule="evenodd" d="M12.849 12.2646C11.2712 11.1287 9.33635 10.4595 7.2454 10.4595C4.93991 10.4595 2.82334 11.2736 1.16707 12.6297C0.824449 12.9091 0.774817 13.4142 1.0542 13.756C1.33438 14.0978 1.8387 14.1483 2.18053 13.8681C3.56062 12.7385 5.32496 12.0605 7.2454 12.0605C8.84804 12.0605 10.3402 12.532 11.5922 13.3437C10.903 14.0474 10.3218 14.8559 9.8735 15.7437C9.67417 16.1375 9.83267 16.6195 10.2265 16.8188C10.6212 17.0181 11.1031 16.8596 11.3024 16.465C12.6217 13.8537 15.329 12.0605 18.4526 12.0605C19.7759 12.0605 21.0239 12.3815 22.123 12.9507C22.5161 13.154 22.9988 13.0003 23.2021 12.6081C23.4054 12.2158 23.2518 11.7323 22.8595 11.529C21.5386 10.8461 20.0409 10.4595 18.4526 10.4595C16.3625 10.4595 14.4268 11.1287 12.849 12.2646Z" fill="white"/>
</g>
</svg>
