<svg width="27" height="19" viewBox="0 0 27 19" fill="none" xmlns="http://www.w3.org/2000/svg">
<path d="M26.2655 8.68374C25.4268 7.22913 20.814 -0.0701361 12.9774 0.165747C5.73058 0.349211 1.5371 6.71805 0.397004 8.68374C0.281987 8.88295 0.221436 9.10894 0.221436 9.33897C0.221436 9.569 0.281987 9.79498 0.397004 9.9942C1.22259 11.4226 5.63885 18.5122 13.3575 18.5122H13.6851C20.9319 18.3287 25.1385 11.9599 26.2655 9.9942C26.3804 9.79494 26.4409 9.56898 26.4409 9.33897C26.4409 9.10896 26.3804 8.883 26.2655 8.68374ZM13.6195 15.8913C7.97147 16.0223 4.28907 11.1867 3.13587 9.33897C4.44633 7.22913 7.86663 2.91771 13.1085 2.78667C18.7303 2.64252 22.4258 7.49122 23.5922 9.33897C22.2424 11.4488 18.8614 15.7602 13.6195 15.8913Z" fill="#2F2E41"/>
</svg>
