<svg width="27" height="19" viewBox="0 0 27 19" fill="none" xmlns="http://www.w3.org/2000/svg">
<path d="M26.2655 8.68374C25.4268 7.22913 20.814 -0.0701361 12.9774 0.165747C5.73058 0.349211 1.5371 6.71805 0.397004 8.68374C0.281987 8.88295 0.221436 9.10894 0.221436 9.33897C0.221436 9.569 0.281987 9.79498 0.397004 9.9942C1.22259 11.4226 5.63885 18.5122 13.3575 18.5122H13.6851C20.9319 18.3287 25.1385 11.9599 26.2655 9.9942C26.3804 9.79494 26.4409 9.56898 26.4409 9.33897C26.4409 9.10896 26.3804 8.883 26.2655 8.68374ZM13.6195 15.8913C7.97147 16.0223 4.28907 11.1867 3.13587 9.33897C4.44633 7.22913 7.86663 2.91771 13.1085 2.78667C18.7303 2.64252 22.4258 7.49122 23.5922 9.33897C22.2424 11.4488 18.8614 15.7602 13.6195 15.8913Z" fill="#2F2E41"/>
<path d="M13.3312 4.75781C12.7289 4.75781 12.1325 4.87645 11.576 5.10695C11.0195 5.33745 10.5139 5.67529 10.088 6.1012C9.66211 6.52711 9.32426 7.03273 9.09376 7.5892C8.86326 8.14568 8.74463 8.7421 8.74463 9.34442C8.74463 9.94675 8.86326 10.5432 9.09376 11.0996C9.32426 11.6561 9.66211 12.1617 10.088 12.5876C10.5139 13.0136 11.0195 13.3514 11.576 13.5819C12.1325 13.8124 12.7289 13.931 13.3312 13.931C14.5477 13.931 15.7143 13.4478 16.5745 12.5876C17.4346 11.7275 17.9179 10.5609 17.9179 9.34442C17.9179 8.12798 17.4346 6.96136 16.5745 6.1012C15.7143 5.24104 14.5477 4.75781 13.3312 4.75781ZM13.3312 11.3101C12.8099 11.3101 12.3099 11.103 11.9413 10.7344C11.5726 10.3657 11.3655 9.86576 11.3655 9.34442C11.3655 8.82309 11.5726 8.32311 11.9413 7.95447C12.3099 7.58583 12.8099 7.37873 13.3312 7.37873C13.8526 7.37873 14.3526 7.58583 14.7212 7.95447C15.0898 8.32311 15.2969 8.82309 15.2969 9.34442C15.2969 9.86576 15.0898 10.3657 14.7212 10.7344C14.3526 11.103 13.8526 11.3101 13.3312 11.3101Z" fill="#2F2E41"/>
</svg>
