<svg width="21" height="21" viewBox="0 0 21 21" fill="none" xmlns="http://www.w3.org/2000/svg">
<path d="M12.0986 12.0086C12.3414 11.779 12.5356 11.503 12.6699 11.1971C12.8042 10.8911 12.8758 10.5613 12.8804 10.2271C12.8851 9.89302 12.8227 9.56136 12.697 9.25176C12.5713 8.94215 12.3847 8.6609 12.1485 8.42462C11.9122 8.18833 11.6309 8.00181 11.3213 7.87609C11.0117 7.75036 10.6801 7.68798 10.3459 7.69262C10.0118 7.69727 9.682 7.76885 9.37602 7.90314C9.07003 8.03743 8.79407 8.23169 8.56445 8.47446C8.10906 8.94596 7.85707 9.57747 7.86277 10.233C7.86846 10.8885 8.13138 11.5155 8.5949 11.979C9.05842 12.4425 9.68545 12.7054 10.3409 12.7111C10.9964 12.7168 11.6279 12.4649 12.0994 12.0095L12.0986 12.0086Z" stroke="#2F2E41" stroke-width="1.5" stroke-linecap="round" stroke-linejoin="round"/>
<path d="M2.37946 10.241C3.44112 6.86021 6.60029 4.40771 10.3311 4.40771C14.0628 4.40771 17.2211 6.86021 18.2828 10.241C17.2211 13.6219 14.0628 16.0744 10.3311 16.0744C6.60029 16.0744 3.44112 13.6219 2.37946 10.241Z" stroke="#2F2E41" stroke-width="1.5" stroke-linecap="round" stroke-linejoin="round"/>
</svg>
