<svg width="15" height="15" viewBox="0 0 15 15" fill="none" xmlns="http://www.w3.org/2000/svg">
<path d="M7.66235 0.615234C5.7644 0.615234 3.94418 1.36919 2.60212 2.71125C1.26006 4.05331 0.506104 5.87353 0.506104 7.77148C0.506104 9.66944 1.26006 11.4897 2.60212 12.8317C3.94418 14.1738 5.7644 14.9277 7.66235 14.9277C9.56031 14.9277 11.3805 14.1738 12.7226 12.8317C14.0646 11.4897 14.8186 9.66944 14.8186 7.77148C14.8186 5.87353 14.0646 4.05331 12.7226 2.71125C11.3805 1.36919 9.56031 0.615234 7.66235 0.615234ZM9.6017 8.69464C9.68584 8.77798 9.74803 8.88086 9.78271 8.9941C9.81739 9.10734 9.82349 9.2274 9.80045 9.34357C9.77742 9.45973 9.72597 9.56839 9.6507 9.65982C9.57544 9.75125 9.47869 9.82262 9.36912 9.86755C9.23773 9.92233 9.09299 9.93667 8.9534 9.90876C8.81381 9.88084 8.68573 9.81193 8.58551 9.71083L7.66235 8.78052L6.7392 9.71083C6.65586 9.79497 6.55297 9.85716 6.43974 9.89184C6.3265 9.92652 6.20644 9.93262 6.09027 9.90958C5.9741 9.88655 5.86545 9.8351 5.77402 9.75984C5.68258 9.68457 5.61122 9.58783 5.56629 9.47825C5.51151 9.34686 5.49716 9.20212 5.52508 9.06253C5.553 8.92295 5.62191 8.79486 5.72301 8.69464L6.65332 7.77148L5.72301 6.84833C5.58825 6.71357 5.51255 6.53081 5.51255 6.34023C5.51255 6.14966 5.58825 5.9669 5.72301 5.83214C5.85776 5.69739 6.04053 5.62168 6.2311 5.62168C6.42168 5.62168 6.60444 5.69739 6.7392 5.83214L7.66235 6.76245L8.58551 5.83214C8.72026 5.69739 8.90303 5.62168 9.0936 5.62168C9.28418 5.62168 9.46694 5.69739 9.6017 5.83214C9.73645 5.9669 9.81216 6.14966 9.81216 6.34023C9.81216 6.53081 9.73645 6.71357 9.6017 6.84833L8.67138 7.77148L9.6017 8.69464Z" fill="#F32D2D"/>
</svg>
